{
  "accessors": [
    {
      "bufferView": 2,
      "componentType": 5126,
      "count": 3369,
      "max": [
        3.5758423805236816,
        11.19876480102539,
        34.575836181640625
      ],
      "min": [
        -3.9441182613372803,
        0.010499715805053711,
        27.46414566040039
      ],
      "type": "VEC3"
    },
    {
      "bufferView": 2,
      "byteOffset": 40428,
      "componentType": 5126,
      "count": 3369,
      "max": [
        0.9973857402801514,
        1.0,
        0.9997967481613159
      ],
      "min": [
        -0.9971747398376465,
        -1.0,
        -0.9994935393333435
      ],
      "type": "VEC3"
    },
    {
      "bufferView": 1,
      "componentType": 5126,
      "count": 3369,
      "max": [
        0.6419218182563782,
        0.964176595211029
      ],
      "min": [
        0.20211665332317352,
        0.006261944770812988
      ],
      "type": "VEC2"
    },
    {
      "bufferView": 0,
      "componentType": 5125,
      "count": 14940,
      "type": "SCALAR"
    },
    {
      "bufferView": 2,
      "byteOffset": 80856,
      "componentType": 5126,
      "count": 3339,
      "max": [
        5.217642307281494,
        19.166000366210938,
        24.133499145507813
      ],
      "min": [
        -5.535226821899414,
        0.07385873794555664,
        13.992891311645508
      ],
      "type": "VEC3"
    },
    {
      "bufferView": 2,
      "byteOffset": 120924,
      "componentType": 5126,
      "count": 3339,
      "max": [
        0.9996567964553833,
        1.0,
        0.9998521208763123
      ],
      "min": [
        -0.9978333115577698,
        -1.0,
        -0.9998701214790344
      ],
      "type": "VEC3"
    },
    {
      "bufferView": 1,
      "byteOffset": 26952,
      "componentType": 5126,
      "count": 3339,
      "max": [
        0.45122450590133667,
        0.9817701578140259
      ],
      "min": [
        0.050888076424598694,
        0.005750104784965515
      ],
      "type": "VEC2"
    },
    {
      "bufferView": 0,
      "byteOffset": 59760,
      "componentType": 5125,
      "count": 14940,
      "type": "SCALAR"
    },
    {
      "bufferView": 2,
      "byteOffset": 160992,
      "componentType": 5126,
      "count": 3236,
      "max": [
        6.108460903167725,
        19.415706634521484,
        49.14404296875
      ],
      "min": [
        -6.738637447357178,
        0.01993083953857422,
        35.932376861572266
      ],
      "type": "VEC3"
    },
    {
      "bufferView": 2,
      "byteOffset": 199824,
      "componentType": 5126,
      "count": 3236,
      "max": [
        0.9993663430213928,
        1.0,
        0.9962955713272095
      ],
      "min": [
        -0.9994038343429565,
        -1.0,
        -0.999701976776123
      ],
      "type": "VEC3"
    },
    {
      "bufferView": 1,
      "byteOffset": 53664,
      "componentType": 5126,
      "count": 3236,
      "max": [
        0.9633966684341431,
        0.9796556234359741
      ],
      "min": [
        0.039622992277145386,
        0.008216185495257378
      ],
      "type": "VEC2"
    },
    {
      "bufferView": 0,
      "byteOffset": 119520,
      "componentType": 5125,
      "count": 14940,
      "type": "SCALAR"
    }
  ],
  "asset": {
    "extras": {
      "author": "daand (https://sketchfab.com/daand)",
      "license": "CC-BY-4.0 (http://creativecommons.org/licenses/by/4.0/)",
      "source": "https://sketchfab.com/3d-models/cotton-candy-trees-24ac8d57add7458b818513417bc51c4e",
      "title": "Cotton Candy Trees"
    },
    "generator": "Sketchfab-11.16.0",
    "version": "2.0"
  },
  "bufferViews": [
    {
      "buffer": 0,
      "byteLength": 179280,
      "name": "floatBufferViews",
      "target": 34963
    },
    {
      "buffer": 0,
      "byteLength": 79552,
      "byteOffset": 179280,
      "byteStride": 8,
      "name": "floatBufferViews",
      "target": 34962
    },
    {
      "buffer": 0,
      "byteLength": 238656,
      "byteOffset": 258832,
      "byteStride": 12,
      "name": "floatBufferViews",
      "target": 34962
    }
  ],
  "buffers": [
    {
      "byteLength": 497488,
      "uri": "scene.bin"
    }
  ],
  "images": [
    {
      "uri": "textures/lambert2_baseColor.png"
    }
  ],
  "materials": [
    {
      "doubleSided": true,
      "name": "lambert2",
      "pbrMetallicRoughness": {
        "baseColorTexture": {
          "index": 0
        },
        "metallicFactor": 0.0,
        "roughnessFactor": 0.6
      }
    }
  ],
  "meshes": [
    {
      "name": "boom_1_lambert2_0",
      "primitives": [
        {
          "attributes": {
            "NORMAL": 1,
            "POSITION": 0,
            "TEXCOORD_0": 2
          },
          "indices": 3,
          "material": 0,
          "mode": 4
        }
      ]
    },
    {
      "name": "boom_2_lambert2_0",
      "primitives": [
        {
          "attributes": {
            "NORMAL": 5,
            "POSITION": 4,
            "TEXCOORD_0": 6
          },
          "indices": 7,
          "material": 0,
          "mode": 4
        }
      ]
    },
    {
      "name": "boom_3_lambert2_0",
      "primitives": [
        {
          "attributes": {
            "NORMAL": 9,
            "POSITION": 8,
            "TEXCOORD_0": 10
          },
          "indices": 11,
          "material": 0,
          "mode": 4
        }
      ]
    }
  ],
  "nodes": [
    {
      "children": [
        1
      ],
      "matrix": [
        1.0,
        0.0,
        0.0,
        0.0,
        0.0,
        2.220446049250313e-16,
        -1.0,
        0.0,
        0.0,
        1.0,
        2.220446049250313e-16,
        0.0,
        0.0,
        0.0,
        0.0,
        1.0
      ],
      "name": "Sketchfab_model"
    },
    {
      "children": [
        2
      ],
      "matrix": [
        1.0,
        0.0,
        0.0,
        0.0,
        0.0,
        0.0,
        1.0,
        0.0,
        0.0,
        -1.0,
        0.0,
        0.0,
        0.0,
        0.0,
        0.0,
        1.0
      ],
      "name": "2094e52eb06644bab9af86a79cbd676e.fbx"
    },
    {
      "children": [
        3,
        5,
        7
      ],
      "name": "RootNode"
    },
    {
      "children": [
        4
      ],
      "matrix": [
        1.0,
        0.0,
        0.0,
        0.0,
        0.0,
        1.0,
        0.0,
        0.0,
        0.0,
        0.0,
        1.0,
        0.0,
        0.0,
        0.0,
        -1.0418765544891357,
        1.0
      ],
      "name": "boom_1"
    },
    {
      "mesh": 0,
      "name": "boom_1_lambert2_0"
    },
    {
      "children": [
        6
      ],
      "name": "boom_2"
    },
    {
      "mesh": 1,
      "name": "boom_2_lambert2_0"
    },
    {
      "children": [
        8
      ],
      "name": "boom_3"
    },
    {
      "mesh": 2,
      "name": "boom_3_lambert2_0"
    }
  ],
  "samplers": [
    {
      "magFilter": 9729,
      "minFilter": 9987,
      "wrapS": 10497,
      "wrapT": 10497
    }
  ],
  "scene": 0,
  "scenes": [
    {
      "name": "Sketchfab_Scene",
      "nodes": [
        0
      ]
    }
  ],
  "textures": [
    {
      "sampler": 0,
      "source": 0
    }
  ]
}
